<?xml version="1.0" standalone="no"?>
<!DOCTYPE svg PUBLIC "-//W3C//DTD SVG 20010904//EN"
 "http://www.w3.org/TR/2001/REC-SVG-20010904/DTD/svg10.dtd">
<svg version="1.0" xmlns="http://www.w3.org/2000/svg"
 width="256.000000pt" height="256.000000pt" viewBox="0 0 256.000000 256.000000"
 preserveAspectRatio="xMidYMid meet">

<g transform="translate(0.000000,256.000000) scale(0.100000,-0.100000)"
fill="#000000" stroke="none">
<path d="M643 1801 c-147 -53 -237 -170 -252 -325 -6 -62 -13 -83 -49 -140
-56 -89 -55 -127 3 -138 13 -2 21 -12 23 -28 2 -14 6 -32 9 -40 7 -17 12 -57
16 -116 3 -65 17 -74 108 -74 100 0 114 -12 124 -103 4 -35 11 -70 15 -77 7
-11 47 -2 192 39 100 29 190 55 199 57 15 4 14 12 -3 87 -25 104 -20 169 17
239 84 156 88 167 93 249 10 178 -78 312 -244 370 -70 25 -181 25 -251 0z m65
-134 c2 -28 8 -37 22 -37 14 0 20 9 22 37 4 52 28 56 28 4 0 -37 2 -41 25 -41
23 0 25 4 25 40 0 29 4 40 15 40 11 0 15 -11 15 -40 0 -33 3 -40 20 -40 28 0
60 -35 60 -65 0 -23 4 -25 41 -25 52 0 48 -24 -5 -28 -32 -3 -37 -6 -34 -25 2
-17 10 -22 36 -23 18 -1 35 -4 38 -7 13 -13 -9 -27 -42 -27 -27 0 -34 -4 -34
-19 0 -16 8 -20 38 -23 50 -4 51 -32 1 -36 -30 -3 -37 -8 -45 -35 -7 -24 -17
-34 -41 -42 -30 -8 -33 -13 -33 -47 0 -27 -4 -38 -15 -38 -11 0 -15 11 -15 40
0 36 -2 40 -25 40 -23 0 -25 -4 -25 -41 0 -52 -24 -48 -28 4 -2 28 -8 37 -22
37 -14 0 -20 -9 -22 -37 -4 -52 -28 -56 -28 -4 0 37 -2 41 -25 41 -30 0 -65
32 -65 59 0 16 -8 20 -37 23 -26 2 -38 8 -38 18 0 10 12 16 38 18 29 3 37 7
37 23 0 15 -7 19 -34 19 -38 0 -57 17 -35 31 8 5 26 9 42 9 20 0 27 5 27 19 0
16 -8 20 -37 23 -52 4 -56 28 -4 28 37 0 41 2 41 25 0 32 33 65 65 65 23 0 25
4 25 41 0 52 24 48 28 -4z"/>
<path d="M632 1588 c-17 -17 -17 -259 0 -276 17 -17 249 -17 266 0 17 17 17
259 0 276 -8 8 -52 12 -133 12 -81 0 -125 -4 -133 -12z"/>
<path d="M1376 1741 c-3 -5 -27 -62 -52 -128 -25 -65 -48 -124 -51 -130 -4 -9
6 -13 30 -13 29 0 36 4 41 25 6 23 11 25 65 25 54 0 59 -2 65 -25 5 -21 12
-25 41 -25 l34 0 -25 66 c-82 219 -77 209 -111 212 -17 2 -34 -1 -37 -7z m49
-107 c22 -52 19 -64 -13 -64 -16 0 -31 2 -34 5 -5 5 23 95 29 95 2 0 10 -16
18 -36z"/>
<path d="M1580 1610 l0 -140 30 0 30 0 0 140 0 140 -30 0 -30 0 0 -140z"/>
<path d="M1265 1375 c-14 -13 -25 -30 -25 -37 0 -27 29 -55 70 -67 30 -9 40
-17 38 -29 -4 -22 -41 -27 -58 -7 -15 19 -50 20 -50 2 0 -18 29 -43 58 -50 35
-8 81 12 88 38 10 40 -4 62 -56 83 -37 15 -48 25 -44 36 7 18 39 22 49 6 9
-15 45 -12 45 4 0 20 -39 46 -68 46 -12 0 -34 -11 -47 -25z"/>
<path d="M1580 1295 c0 -98 1 -105 20 -105 19 0 20 7 20 105 0 98 -1 105 -20
105 -19 0 -20 -7 -20 -105z"/>
<path d="M1932 1383 c2 -10 10 -18 18 -18 8 0 16 8 18 18 2 12 -3 17 -18 17
-15 0 -20 -5 -18 -17z"/>
<path d="M1823 1343 c-12 -27 -14 -38 -5 -41 7 -2 12 -22 12 -46 0 -49 13 -66
52 -66 33 0 39 25 8 33 -30 8 -29 77 1 77 14 0 19 5 17 18 -2 9 -10 17 -18 17
-8 0 -16 10 -18 23 -5 34 -29 26 -49 -15z"/>
<path d="M1436 1319 c-46 -36 -26 -125 29 -130 61 -5 95 22 95 75 0 39 -37 76
-75 76 -12 0 -34 -9 -49 -21z m82 -50 c4 -31 -20 -53 -48 -44 -14 4 -20 15
-20 34 0 35 8 43 40 39 19 -2 26 -10 28 -29z"/>
<path d="M2021 1323 c-55 -46 -24 -133 47 -133 43 0 55 7 71 37 17 34 13 62
-14 88 -29 30 -74 33 -104 8z m85 -48 c13 -51 -46 -77 -68 -30 -14 30 3 55 38
55 17 0 25 -7 30 -25z"/>
<path d="M2226 1332 c-3 -5 -17 -7 -31 -4 -25 4 -25 4 -25 -67 0 -64 2 -71 19
-71 17 0 20 8 23 53 3 48 5 52 28 52 23 0 25 -4 28 -52 3 -45 6 -53 23 -53 16
0 19 7 19 48 0 61 -18 96 -52 100 -14 2 -29 -1 -32 -6z"/>
<path d="M1650 1277 c0 -59 15 -88 45 -88 11 1 37 1 58 1 l37 1 0 69 c0 63 -2
70 -20 70 -17 0 -20 -7 -20 -44 0 -46 -19 -72 -45 -62 -11 4 -15 20 -15 56 0
43 -3 50 -20 50 -17 0 -20 -7 -20 -53z"/>
<path d="M1930 1260 c0 -63 2 -70 20 -70 18 0 20 7 20 70 0 63 -2 70 -20 70
-18 0 -20 -7 -20 -70z"/>
<path d="M2040 1020 c0 -101 2 -111 18 -108 15 3 17 16 17 108 0 92 -2 105
-17 108 -16 3 -18 -7 -18 -108z"/>
<path d="M1240 1015 c0 -97 1 -105 19 -105 17 0 20 8 23 48 l3 47 35 -47 c23
-31 43 -47 58 -48 12 0 22 3 22 6 0 3 -16 26 -35 51 -19 25 -35 50 -35 55 0 5
16 30 36 54 l36 44 -25 0 c-19 0 -36 -12 -62 -46 l-35 -47 0 47 c0 39 -3 46
-20 46 -19 0 -20 -7 -20 -105z"/>
<path d="M2120 1080 c0 -11 -4 -20 -10 -20 -5 0 -10 -7 -10 -15 0 -8 5 -15 10
-15 6 0 10 -22 10 -50 0 -38 4 -52 19 -60 31 -16 51 -12 51 10 0 11 -7 20 -15
20 -11 0 -15 11 -15 40 0 29 4 40 15 40 8 0 15 7 15 15 0 8 -7 15 -15 15 -8 0
-15 9 -15 20 0 13 -7 20 -20 20 -13 0 -20 -7 -20 -20z"/>
<path d="M1420 1040 c-66 -66 40 -173 108 -110 28 26 30 90 4 113 -26 24 -87
22 -112 -3z m90 -30 c15 -28 -4 -60 -35 -60 -18 0 -26 7 -31 25 -12 48 44 77
66 35z"/>
<path d="M1580 983 c0 -66 2 -74 18 -71 13 2 18 16 22 58 4 47 8 55 25 55 17
0 21 -8 25 -55 4 -42 9 -56 23 -58 15 -3 17 5 17 61 0 41 -5 69 -13 75 -7 6
-36 10 -65 10 l-52 -1 0 -74z"/>
<path d="M1753 1053 c-7 -2 -13 -17 -13 -33 0 -23 7 -30 41 -44 32 -13 39 -20
30 -29 -9 -9 -16 -9 -31 1 -11 6 -27 12 -35 12 -13 0 -14 -4 -5 -20 24 -44
110 -34 110 14 0 28 -14 42 -53 51 -44 11 -32 28 14 20 39 -7 40 -6 30 14 -11
20 -56 28 -88 14z"/>
<path d="M1870 1013 c0 -27 6 -59 13 -73 11 -22 20 -25 70 -27 l57 -1 0 74 c0
67 -2 74 -19 74 -17 0 -20 -8 -23 -52 -2 -42 -7 -54 -22 -56 -25 -5 -36 14
-36 66 0 35 -3 42 -20 42 -17 0 -20 -7 -20 -47z"/>
</g>
</svg>
